HIERARCHY
ROOT Hips
{
	OFFSET	0.00	0.00	0.00
	CHANNELS 6 Xposition Yposition Zposition Zrotation Xrotation Yrotation
	JOINT LeftUpLeg
	{
		OFFSET	 0.126116	-0.014019	-0.065224
		CHANNELS 3 Zrotation Xrotation Yrotation
		JOINT LeftLeg
		{
			OFFSET	 0.000000	 0.000000	 0.569914
			CHANNELS 3 Zrotation Xrotation Yrotation
			JOINT LeftFoot
			{
				OFFSET	 0.000000	 0.000000	 0.544423
				CHANNELS 3 Zrotation Xrotation Yrotation
				JOINT LeftToeBase
				{
					OFFSET	 0.000000	 0.000000	 0.207117
					CHANNELS 3 Zrotation Xrotation Yrotation
					End Site
					{
						OFFSET	 0.000000	 0.000000	 0.207117
					}
				}
			}
		}
	}
	JOINT RightUpLeg
	{
		OFFSET	-0.124023	-0.008373	-0.065224
		CHANNELS 3 Zrotation Xrotation Yrotation
		JOINT RightLeg
		{
			OFFSET	 0.000000	 0.000000	 0.570047
			CHANNELS 3 Zrotation Xrotation Yrotation
			JOINT RightFoot
			{
				OFFSET	 0.000000	 0.000000	 0.544354
				CHANNELS 3 Zrotation Xrotation Yrotation
				JOINT RightToeBase
				{
					OFFSET	 0.000000	 0.000000	 0.207540
					CHANNELS 3 Zrotation Xrotation Yrotation
					End Site
					{
						OFFSET	 0.000000	 0.000000	 0.207540
					}
				}
			}
		}
	}
	JOINT Spine
	{
		OFFSET	 0.000184	-0.007763	 0.117403
		CHANNELS 3 Zrotation Xrotation Yrotation
		JOINT Spine1
		{
			OFFSET	 0.000000	 0.000000	 0.137269
			CHANNELS 3 Zrotation Xrotation Yrotation
			JOINT Spine2
			{
				OFFSET	 0.000000	 0.000000	 0.156879
				CHANNELS 3 Zrotation Xrotation Yrotation
				JOINT LeftShoulder
				{
					OFFSET	 0.080501	-0.002496	 0.160144
					CHANNELS 3 Zrotation Xrotation Yrotation
					JOINT LeftArm
					{
						OFFSET	 0.000000	 0.000000	 0.164363
						CHANNELS 3 Zrotation Xrotation Yrotation
						JOINT LeftForeArm
						{
							OFFSET	 0.000000	 0.000000	 0.364576
							CHANNELS 3 Zrotation Xrotation Yrotation
							JOINT LeftHand
							{
								OFFSET	 0.000000	 0.000000	 0.360812
								CHANNELS 3 Zrotation Xrotation Yrotation
								JOINT LeftHandIndex1
								{
									OFFSET	 0.000000	 0.000000	 0.086006
									CHANNELS 3 Zrotation Xrotation Yrotation
									JOINT LeftHandIndex2
									{
										OFFSET	 0.000000	 0.000000	 0.047236
										CHANNELS 3 Zrotation Xrotation Yrotation
										JOINT LeftHandIndex3
										{
											OFFSET	-0.004284	-0.000551	 0.038166
											CHANNELS 3 Zrotation Xrotation Yrotation
											End Site
											{
												OFFSET	-0.004284	-0.000551	 0.038166
											}
										}
									}
								}
							}
						}
					}
				}
				JOINT Neck
				{
					OFFSET	 0.000000	 0.000000	 0.176489
					CHANNELS 3 Zrotation Xrotation Yrotation
					JOINT Head
					{
						OFFSET	 0.000000	-0.001747	 0.077940
						CHANNELS 3 Zrotation Xrotation Yrotation
						End Site
						{
							OFFSET	 0.000000	-0.001747	 0.077940
						}
					}
				}
				JOINT RightShoulder
				{
					OFFSET	-0.080363	 0.000306	 0.159706
					CHANNELS 3 Zrotation Xrotation Yrotation
					JOINT RightArm
					{
						OFFSET	 0.000000	 0.000000	 0.164196
						CHANNELS 3 Zrotation Xrotation Yrotation
						JOINT RightForeArm
						{
							OFFSET	 0.000000	 0.000000	 0.365611
							CHANNELS 3 Zrotation Xrotation Yrotation
							JOINT RightHand
							{
								OFFSET	 0.000000	 0.000000	 0.360648
								CHANNELS 3 Zrotation Xrotation Yrotation
								JOINT RightHandIndex1
								{
									OFFSET	 0.000000	 0.000000	 0.069977
									CHANNELS 3 Zrotation Xrotation Yrotation
									JOINT RightHandIndex2
									{
										OFFSET	 0.000000	 0.000000	 0.052305
										CHANNELS 3 Zrotation Xrotation Yrotation
										JOINT RightHandIndex3
										{
											OFFSET	 0.009002	-0.000782	 0.042196
											CHANNELS 3 Zrotation Xrotation Yrotation
											End Site
											{
												OFFSET	 0.009002	-0.000782	 0.042196
											}
										}
									}
								}
							}
						}
					}
				}
			}
		}
	}
}
MOTION
Frames:    8
Frame Time: 0.03333334
 0.011110	 0.039396	 1.196278	 5.444899	-1.022458	-3.501178	 9.354767	-11.276630	-173.552500	 1.146466	-40.183660	 0.512188	 63.218990	 82.479550	-67.311940	-2.369015	 31.679520	-0.071385	-16.285180	-33.206330	-175.573100	 11.476050	-51.122280	 9.581109	 18.102670	 80.108230	-14.009460	 2.358953	 33.002250	 0.103276	-1.454978	 8.509827	 0.993104	 1.014520	 2.627710	 2.541560	-6.656467	-2.762929	-3.072513	-94.038320	 58.969360	 175.174700	 14.530820	 32.074240	-39.409580	-2.103003	-0.040456	-0.755401	 1.430645	-5.663893	-7.819925	-4.867412	 19.313380	-2.795576	-3.873997	 21.569040	 2.195104	-4.805212	 5.581429	 0.144869	-0.053878	-5.094086	 0.209956	-8.507479	 1.918920	 2.117705	 89.743040	 61.709520	 179.906600	-19.253900	 51.963750	 8.043677	-1.203571	-2.496390	 13.453810	-5.029333	 9.567490	 0.440322	 6.284120	 24.106530	-0.543848	 1.977484	 43.946110	-7.074929	 0.679793	 23.598680	 3.491206
 0.010830	 0.033153	 1.195257	 5.630422	-0.852330	-3.510775	 9.223630	-11.213000	-173.613000	 1.226260	-40.320550	 0.565263	 64.987580	 82.660910	-69.134860	-2.368692	 31.732260	-0.072585	-16.919180	-33.886020	-175.828000	 11.635790	-50.422940	 9.613289	 20.147900	 81.109380	-16.312810	 2.358990	 32.997310	 0.103162	-1.750799	 8.394987	 0.957615	 1.002152	 2.598376	 2.586647	-6.691692	-2.788846	-3.088257	-94.084660	 58.976910	 175.074800	 14.315440	 31.634930	-39.530960	-2.278296	-0.037969	-0.802132	 1.588458	-5.752494	-7.980848	-4.865775	 19.355080	-2.798299	-3.871374	 21.602480	 2.192439	-4.804622	 5.588374	 0.144460	-0.044335	-5.101044	 0.223611	-8.509544	 1.911178	 2.088512	 89.725040	 61.742070	 179.863400	-19.162330	 52.173330	 7.589841	-1.242939	-2.538323	 13.670220	-5.073051	 9.698969	 0.372456	 6.279540	 23.781060	-0.548403	 2.015503	 43.627700	-7.108648	 0.749960	 23.286280	 3.456474
 0.009672	 0.001320	 1.190527	 6.235957	-0.139389	-3.692325	 8.816022	-10.446930	-173.831000	 1.502506	-40.583230	 0.748051	 74.892030	 83.478050	-79.198970	-2.366915	 32.021380	-0.079162	-19.039530	-36.622740	-176.954300	 11.878890	-46.183130	 9.189351	 30.598840	 83.430060	-27.978990	 2.360071	 32.837480	 0.099450	-2.937465	 7.859970	 0.949373	 0.940495	 2.691325	 2.744514	-6.825953	-2.962896	-3.156407	-94.268170	 58.990580	 174.681700	 13.093690	 29.512400	-40.197000	-3.263437	-0.022191	-1.007319	 1.923686	-6.247252	-8.131731	-4.855232	 19.605590	-2.810913	-3.858076	 21.771660	 2.178926	-4.799183	 5.652499	 0.140701	-0.014732	-5.145741	 0.280992	-8.535505	 1.875745	 2.008008	 89.628720	 61.879540	 179.631300	-18.715250	 53.100640	 5.667739	-1.608494	-2.691399	 14.223210	-5.372339	 10.302700	-0.178955	 6.255932	 22.266380	-0.585468	 2.170655	 42.287090	-7.245546	 1.084470	 21.773840	 3.295320
 0.008311	-0.040483	 1.184348	 6.547642	 0.479689	-4.061276	 8.632569	-8.738302	-174.069600	 1.677989	-40.340020	 0.857966	 88.882050	 84.247730	-93.222530	-2.362893	 32.651990	-0.093619	-19.864060	-38.695170	-177.956200	 11.307000	-39.465670	 7.764753	 41.898170	 84.003800	-40.386730	 2.358366	 33.088210	 0.105270	-4.129751	 7.262403	 1.152703	 0.871301	 3.217755	 2.816301	-6.921637	-3.257076	-3.203907	-94.417730	 58.976010	 174.365200	 11.304980	 27.107090	-41.070210	-4.612215	 0.002366	-1.250080	 1.743837	-6.744510	-7.583698	-4.837536	 19.985360	-2.821425	-3.838685	 22.017120	 2.159220	-4.784651	 5.823380	 0.130657	 0.006510	-5.223186	 0.329045	-8.564877	 1.823306	 1.961637	 89.507380	 62.002180	 179.336500	-17.980470	 54.033670	 3.781804	-2.355056	-2.732200	 13.850670	-5.780217	 10.919920	-1.309789	 6.220900	 20.329110	-0.657548	 2.373501	 40.428840	-7.422795	 1.509447	 19.797800	 3.101432
 0.006047	-0.088660	 1.175585	 6.753398	 0.743067	-4.400057	 8.435661	-6.242660	-174.560400	 1.860421	-39.939110	 0.968038	 101.619200	 84.905800	-105.901500	-2.350947	 34.348420	-0.133304	-19.262530	-39.970290	-178.415700	 10.702940	-32.378320	 6.196301	 73.961080	 84.485880	-73.383080	 2.345518	 34.839020	 0.146647	-5.616818	 6.943324	 1.375224	 0.805658	 3.833627	 2.831388	-6.952229	-3.588827	-3.221656	-94.506590	 58.936880	 174.182400	 9.199309	 25.151470	-41.840030	-5.759969	 0.033705	-1.531863	 1.346959	-7.186586	-7.332086	-4.830738	 20.353620	-2.891518	-3.810751	 22.367630	 2.130860	-4.753213	 6.191711	 0.108851	 0.055049	-5.328045	 0.349292	-8.517451	 1.782241	 1.797710	 89.405420	 62.026450	 179.089400	-16.700050	 54.747840	 1.751408	-3.239171	-2.615408	 12.816380	-5.935055	 11.156560	-2.883254	 6.180379	 17.907890	-0.711876	 2.677314	 37.401100	-7.684074	 2.009930	 17.394470	 2.889465
 0.002889	-0.128912	 1.165466	 7.018625	 0.730962	-4.489827	 8.096781	-4.058575	-175.287200	 2.193048	-39.946740	 1.181870	 103.890600	 85.612420	-108.141200	-2.325696	 37.335850	-0.206382	-19.082270	-42.190140	-179.025000	 10.894240	-29.635170	 5.822361	 56.720580	 83.552900	-56.673640	 2.336004	 35.997020	 0.174778	-7.150788	 7.011733	 1.416754	 0.782225	 4.101401	 2.866235	-6.956359	-3.825527	-3.264103	-94.539210	 58.984180	 174.105100	 7.556106	 24.159450	-42.398670	-6.409088	 0.064992	-1.793208	 0.986252	-8.127913	-7.726093	-4.852643	 20.525590	-3.069607	-3.784227	 22.697680	 2.103918	-4.714241	 6.645672	 0.081666	 0.123916	-5.417499	 0.334014	-8.401093	 1.821133	 1.568637	 89.357730	 61.889550	 178.979400	-15.425360	 55.079800	-0.518116	-3.769704	-2.635644	 12.792290	-5.849423	 10.893570	-4.103889	 6.168658	 15.773330	-0.627426	 2.901356	 34.961580	-7.873042	 2.437734	 15.277840	 2.723066
-0.002345	-0.173578	 1.152426	 7.279006	 0.564688	-4.084401	 7.683409	-1.628614	-176.735700	 2.460790	-40.188470	 1.360704	 77.689320	 86.727680	-81.537030	-2.258641	 43.119340	-0.362663	-18.560780	-45.404120	 179.999700	 9.737904	-29.599190	 5.228418	 17.937870	 79.241990	-16.197250	 2.339256	 35.612170	 0.165362	-8.924813	 7.015424	 1.075637	 0.805394	 4.688268	 2.809809	-6.971135	-4.060899	-3.325397	-94.502890	 59.245530	 174.139100	 6.095503	 23.497390	-43.160900	-7.213861	 0.107439	-2.084939	 0.421968	-9.105274	-8.238380	-4.881394	 20.630290	-3.268831	-3.762070	 22.971260	 2.081422	-4.664432	 7.221499	 0.046701	 0.200557	-5.480059	 0.269348	-8.222276	 1.914552	 1.509861	 89.355420	 61.601070	 178.984500	-14.232810	 55.182450	-3.110123	-4.054566	-2.811105	 13.690880	-5.952765	 10.390680	-5.105125	 6.207682	 13.539570	-0.314455	 3.047414	 33.268240	-7.994298	 2.859880	 13.136190	 2.572868
-0.008877	-0.224562	 1.139159	 7.757332	 0.050190	-3.205383	 7.630491	 1.540143	-179.067000	 1.395824	-39.822050	 0.668056	 17.427480	 84.155310	-19.277400	-2.103272	 51.462890	-0.640184	-16.350120	-47.528470	 179.854700	 6.855397	-30.639770	 3.897026	-1.210416	 70.322120	 7.815495	 2.339227	 35.614940	 0.165429	-10.930870	 7.119493	 0.224577	 0.753020	 5.515888	 2.840712	-7.032939	-4.253568	-3.514412	-94.434720	 59.302780	 174.276000	 5.110301	 22.710790	-43.870630	-8.258910	 0.161047	-2.393144	-0.000231	-9.065302	-8.221019	-4.895158	 20.773670	-3.395989	-3.748203	 23.141380	 2.067345	-4.608652	 7.860647	 0.007239	 0.292012	-5.459773	 0.250750	-8.046413	 2.098546	 1.785295	 89.319100	 61.405380	 178.905700	-13.232920	 55.112790	-4.915833	-4.042367	-2.776990	 14.058130	-6.376566	 9.824504	-5.438724	 6.293853	 11.337740	 0.148925	 3.183347	 31.614500	-8.105629	 3.222812	 11.255990	 2.455322
